<?xml version="1.0" encoding="UTF-8" standalone="no"?>
<svg
   xmlns:dc="http://purl.org/dc/elements/1.1/"
   xmlns:cc="http://creativecommons.org/ns#"
   xmlns:rdf="http://www.w3.org/1999/02/22-rdf-syntax-ns#"
   xmlns:svg="http://www.w3.org/2000/svg"
   xmlns="http://www.w3.org/2000/svg"
   xmlns:sodipodi="http://sodipodi.sourceforge.net/DTD/sodipodi-0.dtd"
   xmlns:inkscape="http://www.inkscape.org/namespaces/inkscape"
   xml:space="preserve"
   style="enable-background:new 0 0 144 144;"
   viewBox="19 19 106 106"
   height="144px"
   width="144px"
   y="0px"
   x="0px"
   id="Layer_1"
   version="1.1"
   sodipodi:docname="fullstackrust.svg"
   inkscape:version="0.92.4 5da689c313, 2019-01-14"
   inkscape:export-filename="/home/hunter/Documents/fullstackrust.svg.png"
   inkscape:export-xdpi="339.66"
   inkscape:export-ydpi="339.66"><metadata
     id="metadata386"><rdf:RDF><cc:Work
         rdf:about=""><dc:format>image/svg+xml</dc:format><dc:type
           rdf:resource="http://purl.org/dc/dcmitype/StillImage" /><dc:title></dc:title></cc:Work></rdf:RDF></metadata><defs
     id="defs384" /><sodipodi:namedview
     pagecolor="#ffffff"
     bordercolor="#666666"
     borderopacity="1"
     objecttolerance="10"
     gridtolerance="10"
     guidetolerance="10"
     inkscape:pageopacity="0"
     inkscape:pageshadow="2"
     inkscape:window-width="3840"
     inkscape:window-height="2104"
     id="namedview382"
     showgrid="false"
     inkscape:zoom="6.3576389"
     inkscape:cx="22.060076"
     inkscape:cy="72"
     inkscape:window-x="0"
     inkscape:window-y="56"
     inkscape:window-maximized="1"
     inkscape:current-layer="Layer_1" /><rect
     id="rect411"
     width="106.52103"
     height="106.52103"
     x="18.536865"
     y="18.710541"
     style="stroke-width:0.7361111;fill:#dea584;fill-opacity:1" /><path
     id="path3"
     d="m 119.45265,85.220299 -2.84339,-1.760135 c -0.0239,-0.276963 -0.0511,-0.553278 -0.0809,-0.828299 l 2.44348,-2.279117 c 0.24849,-0.231665 0.35979,-0.574632 0.29249,-0.906599 -0.0653,-0.333262 -0.29897,-0.607636 -0.61669,-0.726056 l -3.12359,-1.168032 c -0.0783,-0.270491 -0.16049,-0.539042 -0.24461,-0.806297 l 1.94844,-2.706209 c 0.19866,-0.275021 0.23943,-0.632872 0.11001,-0.94672 -0.12942,-0.312554 -0.41221,-0.536453 -0.74676,-0.591458 l -3.29379,-0.535805 c -0.12812,-0.249785 -0.26143,-0.495686 -0.39603,-0.739646 l 1.38417,-3.038175 c 0.14171,-0.309319 0.11259,-0.66911 -0.0763,-0.949956 -0.1883,-0.28214 -0.50733,-0.447152 -0.84771,-0.43421 l -3.34296,0.11648 c -0.17278,-0.216135 -0.34879,-0.430328 -0.52804,-0.640638 l 0.76812,-3.256251 c 0.0776,-0.330673 -0.0201,-0.676876 -0.26078,-0.916953 -0.23879,-0.239431 -0.58564,-0.338438 -0.91631,-0.260785 l -3.25561,0.767471 c -0.21096,-0.178602 -0.42514,-0.355263 -0.64193,-0.52804 l 0.11712,-3.342964 c 0.0129,-0.338438 -0.15207,-0.660051 -0.43421,-0.847713 -0.28278,-0.188956 -0.64063,-0.217428 -0.9493,-0.077 l -3.03753,1.384812 c -0.24525,-0.134598 -0.49116,-0.267902 -0.73965,-0.396677 l -0.537092,-3.29443 c -0.0543,-0.333909 -0.27826,-0.617342 -0.59146,-0.746764 -0.31255,-0.130069 -0.671062,-0.08801 -0.946082,0.110009 l -2.708148,1.948444 c -0.266609,-0.08477 -0.534511,-0.166307 -0.805003,-0.24396 l -1.168031,-3.124242 c -0.118422,-0.318377 -0.392795,-0.551984 -0.726056,-0.617989 -0.332614,-0.06536 -0.674935,0.04529 -0.905953,0.292494 l -2.279117,2.445423 c -0.275021,-0.03041 -0.551984,-0.05824 -0.828299,-0.08089 l -1.760136,-2.844043 c -0.177954,-0.287964 -0.493096,-0.46333 -0.832182,-0.46333 -0.339084,0 -0.654226,0.175366 -0.831534,0.46333 l -1.760136,2.844043 c -0.276962,0.02265 -0.553925,0.05048 -0.828946,0.08089 l -2.279764,-2.445423 c -0.231018,-0.247196 -0.573985,-0.357852 -0.905952,-0.292494 -0.333261,0.06665 -0.607636,0.299612 -0.726056,0.617989 l -1.168032,3.124241 c -0.270491,0.07765 -0.538394,0.159836 -0.805649,0.24396 l -2.707559,-1.948449 c -0.275022,-0.198662 -0.633519,-0.240725 -0.94672,-0.110009 -0.312554,0.129422 -0.5371,0.412856 -0.591458,0.746764 l -0.5371,3.294431 c -0.24849,0.128774 -0.494391,0.261431 -0.739645,0.396677 l -3.037529,-1.384813 c -0.30867,-0.141069 -0.668463,-0.11195 -0.949308,0.077 -0.28214,0.187663 -0.447152,0.509275 -0.43421,0.847713 l 0.11648,3.342964 c -0.216135,0.172777 -0.430328,0.349438 -0.641933,0.528041 l -3.255603,-0.76747 c -0.330673,-0.07701 -0.677523,0.02136 -0.916953,0.260785 -0.240725,0.240077 -0.338438,0.586279 -0.260785,0.916952 l 0.766824,3.256251 c -0.177955,0.210958 -0.353968,0.424504 -0.526747,0.640638 l -3.342964,-0.11648 c -0.337143,-0.0097 -0.659403,0.152071 -0.847712,0.43421 -0.188955,0.280846 -0.217429,0.640638 -0.077,0.949956 l 1.384813,3.038175 c -0.134599,0.243961 -0.267904,0.489862 -0.396678,0.739646 l -3.293784,0.535806 c -0.334555,0.05436 -0.616695,0.278257 -0.746763,0.591458 -0.129422,0.313847 -0.08736,0.671698 0.110008,0.94672 l 1.948445,2.706208 c -0.08477,0.267256 -0.166954,0.535806 -0.244607,0.806298 l -3.124241,1.168031 c -0.317083,0.118421 -0.55069,0.392794 -0.616695,0.726056 -0.066,0.332614 0.04465,0.674934 0.292493,0.906599 l 2.44413,2.279117 c -0.03042,0.275021 -0.05759,0.551983 -0.08089,0.828299 l -2.843395,1.760136 c -0.287963,0.177954 -0.46333,0.49245 -0.46333,0.832182 0,0.339731 0.175367,0.654227 0.46333,0.831535 l 2.843395,1.760135 c 0.0233,0.276963 0.05048,0.553278 0.08089,0.828299 l -2.44413,2.279765 c -0.247843,0.231017 -0.358498,0.573984 -0.292493,0.905951 0.066,0.333262 0.299612,0.606989 0.616695,0.726056 l 3.124241,1.168032 c 0.07766,0.270491 0.159835,0.539042 0.244607,0.806297 l -1.948447,2.706849 c -0.198015,0.27567 -0.240077,0.633532 -0.110008,0.946082 0.130068,0.31385 0.412856,0.53774 0.74741,0.59146 l 3.293137,0.535802 c 0.128774,0.24978 0.260785,0.49569 0.396678,0.74094 l -1.384813,3.03688 c -0.14107,0.30868 -0.11195,0.66782 0.077,0.94995 0.188956,0.28279 0.510569,0.44781 0.847712,0.43421 l 3.34167,-0.11711 c 0.174073,0.21742 0.349439,0.43031 0.528041,0.64192 l -0.766824,3.2569 c -0.07765,0.33003 0.02006,0.67494 0.260785,0.91502 0.238782,0.24136 0.58628,0.33778 0.916953,0.26013 l 3.255603,-0.76683 c 0.211605,0.1799 0.425798,0.35463 0.641933,0.52675 l -0.11648,3.34361 c -0.01294,0.33844 0.15207,0.65941 0.43421,0.84836 0.280845,0.18831 0.640638,0.21678 0.949308,0.0757 l 3.037529,-1.38417 c 0.244607,0.13589 0.490508,0.26791 0.739645,0.39668 l 0.5371,3.29249 c 0.05436,0.3352 0.278257,0.61864 0.591458,0.74741 0.312553,0.13007 0.671698,0.088 0.94672,-0.10937 l 2.706208,-1.94973 c 0.267256,0.0847 0.535807,0.1676 0.806298,0.24526 l 1.168031,3.12294 c 0.118421,0.31708 0.392795,0.55199 0.726056,0.6167 0.332614,0.0673 0.674934,-0.044 0.905953,-0.29249 l 2.279764,-2.44414 c 0.27502,0.0317 0.551983,0.0582 0.828946,0.0828 l 1.760135,2.84339 c 0.177309,0.28667 0.49245,0.46333 0.831535,0.46333 0.339085,0 0.654227,-0.17602 0.832182,-0.46333 l 1.760136,-2.84339 c 0.276962,-0.0246 0.553277,-0.0511 0.828299,-0.0828 l 2.279117,2.44417 c 0.231018,0.24849 0.573986,0.35979 0.905953,0.29249 0.33326,-0.0653 0.607634,-0.29961 0.726055,-0.61669 l 1.168031,-3.12295 c 0.270492,-0.0776 0.539042,-0.16049 0.806298,-0.24525 l 2.706858,1.94973 c 0.27502,0.19738 0.633522,0.23943 0.946082,0.10937 0.3132,-0.12878 0.53709,-0.41286 0.59145,-0.74741 l 0.537102,-3.29249 c 0.24849,-0.12878 0.49439,-0.26273 0.73965,-0.39668 l 3.03753,1.38417 c 0.30867,0.14106 0.66781,0.11259 0.9493,-0.0757 0.28214,-0.18896 0.44651,-0.50927 0.43421,-0.84836 l -0.11647,-3.34361 c 0.21613,-0.17277 0.43032,-0.34685 0.64128,-0.52675 l 3.2556,0.76683 c 0.33068,0.0776 0.67753,-0.0188 0.91631,-0.26014 0.24072,-0.24008 0.33843,-0.58498 0.26078,-0.91501 l -0.76682,-3.2569 c 0.1786,-0.21161 0.35462,-0.4245 0.52675,-0.64193 l 3.34296,0.11712 c 0.33715,0.0136 0.6594,-0.15142 0.84771,-0.43421 0.18896,-0.28214 0.21808,-0.64128 0.0763,-0.94995 l -1.38417,-3.03688 c 0.13524,-0.24526 0.2679,-0.49116 0.39603,-0.74094 l 3.29378,-0.535812 c 0.33521,-0.0537 0.61735,-0.27761 0.74677,-0.59145 0.12942,-0.31256 0.0886,-0.670412 -0.11002,-0.946082 l -1.94843,-2.706856 c 0.0841,-0.267256 0.1663,-0.535807 0.2446,-0.806298 l 3.12359,-1.168031 c 0.31773,-0.119068 0.55199,-0.392795 0.6167,-0.726056 0.0673,-0.332614 -0.044,-0.674934 -0.29249,-0.905952 l -2.44349,-2.279765 c 0.0298,-0.27502 0.0569,-0.551983 0.0809,-0.828298 l 2.84339,-1.760136 c 0.28796,-0.177308 0.46333,-0.49245 0.46333,-0.831535 0,-0.339085 -0.17472,-0.654227 -0.46268,-0.832182 z m -19.03082,23.587761 c -1.085852,-0.23424 -1.776312,-1.30457 -1.543362,-2.39365 0.23232,-1.08779 1.301992,-1.78019 2.387192,-1.54595 1.08585,0.23232 1.77761,1.30458 1.54465,2.39172 -0.23296,1.08714 -1.30328,1.7802 -2.38848,1.54788 z m -0.966132,-6.5345 c -0.990732,-0.21225 -1.965272,0.41803 -2.177522,1.4107 l -1.009492,4.71095 c -3.115184,1.41394 -6.574627,2.19953 -10.217849,2.19953 -3.726699,0 -7.261207,-0.82443 -10.43204,-2.29853 l -1.008842,-4.71096 c -0.212252,-0.99137 -1.186798,-1.62295 -2.176875,-1.41005 l -4.158967,0.89301 c -0.772,-0.79465 -1.490291,-1.64106 -2.150342,-2.53472 h 20.236384 c 0.229076,0 0.381794,-0.0414 0.381794,-0.24978 v -7.15833 c 0,-0.208369 -0.152718,-0.249785 -0.381794,-0.249785 h -5.918456 v -4.537526 h 6.401199 c 0.584339,0 3.124241,0.166955 3.936363,3.413499 0.254313,0.998489 0.812768,4.246326 1.194562,5.286236 0.3805,1.166092 1.929679,3.495686 3.580452,3.495686 h 10.083897 c 0.11454,0 0.23685,-0.0129 0.36562,-0.0362 -0.69953,0.9506 -1.46699,1.85008 -2.29335,2.69067 z m -27.988753,6.43614 c -1.085848,0.23426 -2.154872,-0.45815 -2.388478,-1.54594 -0.232312,-1.08973 0.458154,-2.1594 1.544001,-2.39365 1.085849,-0.23231 2.15552,0.46009 2.388479,1.54788 0.232312,1.08714 -0.4588,2.15876 -1.544002,2.39171 z m -7.67665,-31.129166 c 0.450387,1.016608 -0.0078,2.207935 -1.023079,2.657676 -1.015313,0.451034 -2.203405,-0.0078 -2.653793,-1.02502 -0.450388,-1.017256 0.0078,-2.206642 1.023079,-2.657676 1.015961,-0.450388 2.203405,0.0078 2.653793,1.02502 z m -2.359359,5.592961 4.332394,-1.925149 c 0.925365,-0.410914 1.343397,-1.495468 0.932483,-2.422775 L 65.80345,76.807886 h 3.509271 v 15.817926 h -7.080017 c -0.614106,-2.158755 -0.943484,-4.437225 -0.943484,-6.792053 0,-0.898835 0.04853,-1.787315 0.141716,-2.660264 z M 80.442991,81.637258 V 76.97484 h 8.356762 c 0.431621,0 3.047882,0.498921 3.047882,2.45513 0,1.624243 -2.006685,2.206641 -3.656811,2.206641 h -7.747833 z m 30.370119,4.196501 c 0,0.618636 -0.0226,1.2308 -0.0679,1.838436 h -2.54055 c -0.25431,0 -0.35656,0.166953 -0.35656,0.416091 v 1.166736 c 0,2.74633 -1.54853,3.343611 -2.90552,3.495682 -1.29228,0.145599 -2.72497,-0.540983 -2.90164,-1.33175 -0.76229,-4.287743 -2.03256,-5.203401 -4.038604,-6.785582 2.489424,-1.580887 5.079814,-3.913067 5.079814,-7.034719 0,-3.37079 -2.31084,-5.493954 -3.885892,-6.535151 -2.209884,-1.456642 -4.656602,-1.748488 -5.316653,-1.748488 H 67.605001 c 3.56298,-3.976483 8.391706,-6.793348 13.853303,-7.818368 l 3.097062,3.249134 c 0.700173,0.733174 1.859791,0.760352 2.592318,0.05953 l 3.465267,-3.314492 c 7.261205,1.351811 13.408749,5.871865 16.951669,12.073108 l -2.3723,5.35806 c -0.40962,0.927307 0.008,2.011862 0.93313,2.422775 l 4.56729,2.028686 c 0.0789,0.810827 0.12037,1.630067 0.12037,2.460308 z M 84.556661,58.732845 c 0.802415,-0.768765 2.075278,-0.738351 2.843395,0.06536 0.766824,0.805651 0.737705,2.079808 -0.06665,2.847925 -0.802416,0.768766 -2.075278,0.738998 -2.843397,-0.066 -0.766177,-0.804356 -0.737056,-2.078513 0.06665,-2.847278 z m 23.541819,18.945402 c 0.44974,-1.016607 1.63783,-1.475408 2.65315,-1.024373 1.01532,0.450387 1.47346,1.641068 1.02308,2.657675 -0.44975,1.017256 -1.63784,1.476056 -2.6538,1.025021 -1.01401,-0.450388 -1.47217,-1.640421 -1.02243,-2.658323 z"
     inkscape:connector-curvature="0"
     style="stroke-width:0.64710867" /></svg>